{"title":"Deep Dark Canyon 2013 BRRip 480p x264 AAC - VYTO [P2PDL]","uid":9084490,"size":319374733,"categoryP":"video","categoryS":"movies","magnet":"?xt=urn:btih:5488ebcbca4fe685c565315a25bbb89881ddb24b&amp;dn=Deep+Dark+Canyon+2013+BRRip+480p+x264+AAC+-+VYTO+%5BP2PDL%5D&amp;tr=udp%3A%2F%2Ftracker.openbittorrent.com%3A80&amp;tr=udp%3A%2F%2Fopen.demonii.com%3A1337&amp;tr=udp%3A%2F%2Ftracker.coppersurfer.tk%3A6969&amp;tr=udp%3A%2F%2Fexodus.desync.com%3A6969","seeders":1,"leechers":0,"uploader":"ValidusVyto","files":-1,"time":1382468255,"description":"_______ Visit us at our Semi Public Bittorrent Community ________\n  &lt;a href=&quot;\nhttp://p2pdl.com&quot; rel=&quot;nofollow&quot; target=&quot;_NEW&quot;&gt;\nhttp://p2pdl.com&lt;/a&gt;  _____________________________ &lt;a href=&quot; http://p2pdl.com&quot; rel=&quot;nofollow&quot; target=&quot;_NEW&quot;&gt; http://p2pdl.com&lt;/a&gt;\n\n\n\nDeep Dark Canyon 2013 BRRip 480p x264 AAC - VYTO\n\n\nGenre: Action | Drama | Thriller  \nPlot: After a hunting accident leaves the town mayor dead, teenage brothers Nate\nand Skylar go on the run from the mayor's family, who have declared open season\non them.   \nDirector: Abe Levy, Silver Tree\nStars: Ted Levine, Spencer Treat Clark, Nick Eversman.\nRated: R for language and some violence.\n\n\nIMDb: &lt;a href=&quot;\nhttp://www.imdb.com/title/tt1646212/&quot; rel=&quot;nofollow&quot; target=&quot;_NEW&quot;&gt;\nhttp://www.imdb.com/title/tt1646212/&lt;/a&gt;\n\nTrailer:\n\n\nFormat                         : MPEG-4\nFile size                      : 302 MiB\nDuration                       : 1h 29mn\nOverall bit rate               : 470 Kbps\n\nVideo\nFormat                         : AVC\nBit rate                       : 427 Kbps\nWidth                          : 720 pixels\nHeight                         : 304 pixels\nDisplay aspect ratio           : 2.35:1\nFrame rate mode                : Constant\nFrame rate                     : 23.976 fps\nBit depth                      : 10 bits\nStream size                    : 274 MiB (91%)\nWriting library                : x264 core 138 r2358\n\nAudio\nFormat                         : AAC\nBit rate mode                  : Variable\nBit rate                       : 40.0 Kbps\nChannel(s)                     : 2 channels\nChannel positions              : Front: L R\nSampling rate                  : 48.0 KHz\nStream size                    : 25.7 MiB (9%)\nLanguage                       : English\n\nSubtitle                       : N/a\n\nSource                         : 720p.BluRay.x264-iFPD\n &lt;a href=&quot;\nhttp://ultraimg.com/images/Qqu9M.png&quot; rel=&quot;nofollow&quot; target=&quot;_NEW&quot;&gt;\nhttp://ultraimg.com/images/Qqu9M.png&lt;/a&gt; &lt;a href=&quot;\nhttp://ultraimg.com/images/6PEo.png&quot; rel=&quot;nofollow&quot; target=&quot;_NEW&quot;&gt;\nhttp://ultraimg.com/images/6PEo.png&lt;/a&gt; &lt;a href=&quot;\nhttp://ultraimg.com/images/JAXPN.png&quot; rel=&quot;nofollow&quot; target=&quot;_NEW&quot;&gt;\nhttp://ultraimg.com/images/JAXPN.png&lt;/a&gt; &lt;a href=&quot;\nhttp://ultraimg.com/images/Asny3.png&quot; rel=&quot;nofollow&quot; target=&quot;_NEW&quot;&gt;\nhttp://ultraimg.com/images/Asny3.png&lt;/a&gt; &lt;a href=&quot;\nhttp://ultraimg.com/images/0secJ.png&quot; rel=&quot;nofollow&quot; target=&quot;_NEW&quot;&gt;\nhttp://ultraimg.com/images/0secJ.png&lt;/a&gt; &lt;a href=&quot;\nhttp://ultraimg.com/images/KqU4M.png&quot; rel=&quot;nofollow&quot; target=&quot;_NEW&quot;&gt;\nhttp://ultraimg.com/images/KqU4M.png&lt;/a&gt; &lt;a href=&quot;\nhttp://ultraimg.com/images/vmzHr.png&quot; rel=&quot;nofollow&quot; target=&quot;_NEW&quot;&gt;\nhttp://ultraimg.com/images/vmzHr.png&lt;/a&gt;\n\n----------------------------------------------------------------------------------------------------\n\n\nEncoded using revolutionary 10bit encoding, which enables us to provide you more crispier \nand sharper images at small sizes, just make sure you follow our instructions without a fault.\nRecommend to you to use latest version of VLC player. Install K-Lite Codec Pack or shark007 codecs\nin case of any kind of problem in playback (For non-VLC Media Player users). Alternatively, install\nCore AVC codecs, the fastest decoder that there is coupled with Community Center Codec Pack and play\non Windows Media Player Classic. Check sample to be sure.\nEnjoy!\n\nEncoder Notes:Looking For Early Access To Anything You Can Provide DVDScr, R5, DVDR, BluRay, Direct\nAudio, Music Releases and Seedboxes. We require dedicated servers, so as to do more \nand fast releases of movies.\nIf You Got anything to offer please contact us at &quot;&lt;a class=&quot;__cf_email__&quot; href=&quot;/cdn-cgi/l/email-protection&quot; data-cfemail=&quot;9dedeffaddf5e8eef5b3fef2f0&quot;&gt;[email&amp;#160;protected]&lt;/a&gt;&lt;script cf-hash='f9e31' type=&quot;text/javascript&quot;&gt;\n/* &lt;![CDATA[ */!function(){try{var t=&quot;currentScript&quot;in document?document.currentScript:function(){for(var t=document.getElementsByTagName(&quot;script&quot;),e=t.length;e--;)if(t[e].getAttribute(&quot;cf-hash&quot;))return t[e]}();if(t&amp;&amp;t.previousSibling){var e,r,n,i,c=t.previousSibling,a=c.getAttribute(&quot;data-cfemail&quot;);if(a){for(e=&quot;&quot;,r=parseInt(a.substr(0,2),16),n=2;a.length-n;n+=2)i=parseInt(a.substr(n,2),16)^r,e+=String.fromCharCode(i);e=document.createTextNode(e),c.parentNode.replaceChild(e,c)}}}catch(u){}}();/* ]]&gt; */&lt;/script&gt;&quot;.\n\nFacebook Fan Page:  \nSearch P2PDL on FB and hit like!!!\n\nFor more of our team uploads visit @                                             &lt;a href=&quot; http://thepiratebay.se/user/vitamin_x&quot; rel=&quot;nofollow&quot; target=&quot;_NEW&quot;&gt; http://thepiratebay.se/user/vitamin_x&lt;/a&gt;\t","torrent":{"xt":"urn:btih:5488ebcbca4fe685c565315a25bbb89881ddb24b","amp;dn":"Deep+Dark+Canyon+2013+BRRip+480p+x264+AAC+-+VYTO+%5BP2PDL%5D","amp;tr":["udp%3A%2F%2Ftracker.openbittorrent.com%3A80","udp%3A%2F%2Fopen.demonii.com%3A1337","udp%3A%2F%2Ftracker.coppersurfer.tk%3A6969","udp%3A%2F%2Fexodus.desync.com%3A6969"],"infoHash":"5488ebcbca4fe685c565315a25bbb89881ddb24b","infoHashBuffer":{"type":"Buffer","data":[84,136,235,203,202,79,230,133,197,101,49,90,37,187,184,152,129,221,178,75]},"announce":[],"urlList":[]}}